<mxfile host="Electron" modified="2024-12-18T07:02:22.154Z" agent="Mozilla/5.0 (Windows NT 10.0; Win64; x64) AppleWebKit/537.36 (KHTML, like Gecko) draw.io/22.0.3 Chrome/114.0.5735.289 Electron/25.8.4 Safari/537.36" etag="NSFRhjgvO2thzJmiXxRu" version="22.0.3" type="device" pages="4">
  <diagram id="kSzcMR0u03rfNY5keuFX" name="Классов">
    <mxGraphModel dx="819" dy="482" grid="1" gridSize="10" guides="1" tooltips="1" connect="1" arrows="1" fold="1" page="1" pageScale="1" pageWidth="827" pageHeight="1169" math="0" shadow="0">
      <root>
        <mxCell id="0" />
        <mxCell id="1" parent="0" />
        <mxCell id="Ui4USjVnpxRHwr0s3dEP-13" value="_arrayProcessor" style="swimlane;fontStyle=1;align=center;verticalAlign=top;childLayout=stackLayout;horizontal=1;startSize=26;horizontalStack=0;resizeParent=1;resizeParentMax=0;resizeLast=0;collapsible=1;marginBottom=0;whiteSpace=wrap;html=1;" vertex="1" parent="1">
          <mxGeometry x="190" y="440" width="170" height="150" as="geometry" />
        </mxCell>
        <mxCell id="Ui4USjVnpxRHwr0s3dEP-14" value="-size():int&lt;br&gt;-i():int&lt;br&gt;-x():int" style="text;strokeColor=none;fillColor=none;align=left;verticalAlign=top;spacingLeft=4;spacingRight=4;overflow=hidden;rotatable=0;points=[[0,0.5],[1,0.5]];portConstraint=eastwest;whiteSpace=wrap;html=1;" vertex="1" parent="Ui4USjVnpxRHwr0s3dEP-13">
          <mxGeometry y="26" width="170" height="54" as="geometry" />
        </mxCell>
        <mxCell id="Ui4USjVnpxRHwr0s3dEP-15" value="" style="line;strokeWidth=1;fillColor=none;align=left;verticalAlign=middle;spacingTop=-1;spacingLeft=3;spacingRight=3;rotatable=0;labelPosition=right;points=[];portConstraint=eastwest;strokeColor=inherit;" vertex="1" parent="Ui4USjVnpxRHwr0s3dEP-13">
          <mxGeometry y="80" width="170" height="8" as="geometry" />
        </mxCell>
        <mxCell id="Ui4USjVnpxRHwr0s3dEP-16" value="+&amp;nbsp;GenerateRandomArray&lt;br&gt;+&amp;nbsp;GetEvenNumbers&lt;br&gt;+ GetOddNumbers" style="text;strokeColor=none;fillColor=none;align=left;verticalAlign=top;spacingLeft=4;spacingRight=4;overflow=hidden;rotatable=0;points=[[0,0.5],[1,0.5]];portConstraint=eastwest;whiteSpace=wrap;html=1;" vertex="1" parent="Ui4USjVnpxRHwr0s3dEP-13">
          <mxGeometry y="88" width="170" height="62" as="geometry" />
        </mxCell>
        <mxCell id="Ui4USjVnpxRHwr0s3dEP-17" value="&amp;lt;&amp;lt;Интерфейс&amp;gt;&amp;gt;&lt;br&gt;GenerateArray" style="swimlane;fontStyle=1;align=center;verticalAlign=top;childLayout=stackLayout;horizontal=1;startSize=40;horizontalStack=0;resizeParent=1;resizeParentMax=0;resizeLast=0;collapsible=1;marginBottom=0;whiteSpace=wrap;html=1;" vertex="1" parent="1">
          <mxGeometry x="350" y="230" width="160" height="80" as="geometry" />
        </mxCell>
        <mxCell id="Ui4USjVnpxRHwr0s3dEP-21" value="" style="endArrow=none;dashed=1;html=1;rounded=0;exitX=0;exitY=0.175;exitDx=0;exitDy=0;exitPerimeter=0;entryX=1.004;entryY=0.186;entryDx=0;entryDy=0;entryPerimeter=0;" edge="1" parent="Ui4USjVnpxRHwr0s3dEP-17" source="Ui4USjVnpxRHwr0s3dEP-20" target="Ui4USjVnpxRHwr0s3dEP-20">
          <mxGeometry width="50" height="50" relative="1" as="geometry">
            <mxPoint y="32.70999999999998" as="sourcePoint" />
            <mxPoint x="138" y="32.70999999999998" as="targetPoint" />
          </mxGeometry>
        </mxCell>
        <mxCell id="Ui4USjVnpxRHwr0s3dEP-20" value="+_arrayProcessor&lt;br&gt;+GraphDrawer" style="text;strokeColor=none;fillColor=none;align=left;verticalAlign=top;spacingLeft=4;spacingRight=4;overflow=hidden;rotatable=0;points=[[0,0.5],[1,0.5]];portConstraint=eastwest;whiteSpace=wrap;html=1;" vertex="1" parent="Ui4USjVnpxRHwr0s3dEP-17">
          <mxGeometry y="40" width="160" height="40" as="geometry" />
        </mxCell>
        <mxCell id="Ui4USjVnpxRHwr0s3dEP-23" value="GraphDrawer" style="swimlane;fontStyle=1;align=center;verticalAlign=top;childLayout=stackLayout;horizontal=1;startSize=26;horizontalStack=0;resizeParent=1;resizeParentMax=0;resizeLast=0;collapsible=1;marginBottom=0;whiteSpace=wrap;html=1;" vertex="1" parent="1">
          <mxGeometry x="510" y="440" width="180" height="150" as="geometry" />
        </mxCell>
        <mxCell id="Ui4USjVnpxRHwr0s3dEP-24" value="-barWidth():double&lt;br&gt;-maxHeight():double&lt;br&gt;-i():int" style="text;strokeColor=none;fillColor=none;align=left;verticalAlign=top;spacingLeft=4;spacingRight=4;overflow=hidden;rotatable=0;points=[[0,0.5],[1,0.5]];portConstraint=eastwest;whiteSpace=wrap;html=1;" vertex="1" parent="Ui4USjVnpxRHwr0s3dEP-23">
          <mxGeometry y="26" width="180" height="54" as="geometry" />
        </mxCell>
        <mxCell id="Ui4USjVnpxRHwr0s3dEP-25" value="" style="line;strokeWidth=1;fillColor=none;align=left;verticalAlign=middle;spacingTop=-1;spacingLeft=3;spacingRight=3;rotatable=0;labelPosition=right;points=[];portConstraint=eastwest;strokeColor=inherit;" vertex="1" parent="Ui4USjVnpxRHwr0s3dEP-23">
          <mxGeometry y="80" width="180" height="8" as="geometry" />
        </mxCell>
        <mxCell id="Ui4USjVnpxRHwr0s3dEP-26" value="&lt;font style=&quot;font-size: 11px;&quot;&gt;+&amp;nbsp;canvas.Children.Add(titleBlock);&lt;br&gt;+&amp;nbsp;&amp;nbsp;canvas.Children.Add(bar);&lt;br&gt;+&amp;nbsp;&amp;nbsp;canvas.Children.Add(valueText);&lt;/font&gt;" style="text;strokeColor=none;fillColor=none;align=left;verticalAlign=top;spacingLeft=4;spacingRight=4;overflow=hidden;rotatable=0;points=[[0,0.5],[1,0.5]];portConstraint=eastwest;whiteSpace=wrap;html=1;" vertex="1" parent="Ui4USjVnpxRHwr0s3dEP-23">
          <mxGeometry y="88" width="180" height="62" as="geometry" />
        </mxCell>
        <mxCell id="Ui4USjVnpxRHwr0s3dEP-30" style="edgeStyle=orthogonalEdgeStyle;rounded=0;orthogonalLoop=1;jettySize=auto;html=1;entryX=0.344;entryY=1.025;entryDx=0;entryDy=0;entryPerimeter=0;endArrow=block;endFill=0;dashed=1;" edge="1" parent="1" source="Ui4USjVnpxRHwr0s3dEP-13" target="Ui4USjVnpxRHwr0s3dEP-20">
          <mxGeometry relative="1" as="geometry" />
        </mxCell>
        <mxCell id="Ui4USjVnpxRHwr0s3dEP-31" style="edgeStyle=orthogonalEdgeStyle;rounded=0;orthogonalLoop=1;jettySize=auto;html=1;entryX=0.708;entryY=0.983;entryDx=0;entryDy=0;entryPerimeter=0;endArrow=block;endFill=0;dashed=1;" edge="1" parent="1" source="Ui4USjVnpxRHwr0s3dEP-23" target="Ui4USjVnpxRHwr0s3dEP-20">
          <mxGeometry relative="1" as="geometry" />
        </mxCell>
      </root>
    </mxGraphModel>
  </diagram>
  <diagram name="Компонентов" id="l2q6QJbqK2KSOsYht-rp">
    <mxGraphModel dx="1434" dy="844" grid="1" gridSize="10" guides="1" tooltips="1" connect="1" arrows="1" fold="1" page="1" pageScale="1" pageWidth="827" pageHeight="1169" math="0" shadow="0">
      <root>
        <mxCell id="0" />
        <mxCell id="1" parent="0" />
        <mxCell id="Zj7BQAjbASsGY6jR_OW3-34" value="" style="shape=folder;fontStyle=1;spacingTop=10;tabWidth=40;tabHeight=14;tabPosition=left;html=1;whiteSpace=wrap;fillColor=none;" vertex="1" parent="1">
          <mxGeometry x="170" y="230" width="610" height="430" as="geometry" />
        </mxCell>
        <mxCell id="Zj7BQAjbASsGY6jR_OW3-4" value="&amp;lt;&amp;lt;компонент &lt;br&gt;устройство&amp;gt;&amp;gt;&lt;br&gt;&lt;br&gt;&lt;br&gt;Компьютер" style="html=1;dropTarget=0;whiteSpace=wrap;" vertex="1" parent="1">
          <mxGeometry x="218" y="354" width="181" height="92" as="geometry" />
        </mxCell>
        <mxCell id="Zj7BQAjbASsGY6jR_OW3-5" value="" style="shape=module;jettyWidth=8;jettyHeight=4;" vertex="1" parent="Zj7BQAjbASsGY6jR_OW3-4">
          <mxGeometry x="1" width="20" height="20" relative="1" as="geometry">
            <mxPoint x="-27" y="7" as="offset" />
          </mxGeometry>
        </mxCell>
        <mxCell id="Zj7BQAjbASsGY6jR_OW3-6" value="" style="rounded=0;orthogonalLoop=1;jettySize=auto;html=1;endArrow=halfCircle;endFill=0;endSize=6;strokeWidth=1;sketch=0;exitX=1;exitY=0.5;exitDx=0;exitDy=0;" edge="1" parent="1" source="Zj7BQAjbASsGY6jR_OW3-9">
          <mxGeometry relative="1" as="geometry">
            <mxPoint x="500" y="565" as="sourcePoint" />
            <mxPoint x="470" y="400" as="targetPoint" />
          </mxGeometry>
        </mxCell>
        <mxCell id="Zj7BQAjbASsGY6jR_OW3-7" value="" style="rounded=0;orthogonalLoop=1;jettySize=auto;html=1;endArrow=oval;endFill=0;sketch=0;sourcePerimeterSpacing=0;targetPerimeterSpacing=0;endSize=10;" edge="1" parent="1">
          <mxGeometry relative="1" as="geometry">
            <mxPoint x="540" y="400" as="sourcePoint" />
            <mxPoint x="470" y="400" as="targetPoint" />
          </mxGeometry>
        </mxCell>
        <mxCell id="Zj7BQAjbASsGY6jR_OW3-8" value="" style="ellipse;whiteSpace=wrap;html=1;align=center;aspect=fixed;fillColor=none;strokeColor=none;resizable=0;perimeter=centerPerimeter;rotatable=0;allowArrows=0;points=[];outlineConnect=1;" vertex="1" parent="1">
          <mxGeometry x="475" y="560" width="10" height="10" as="geometry" />
        </mxCell>
        <mxCell id="Zj7BQAjbASsGY6jR_OW3-10" value="" style="rounded=0;orthogonalLoop=1;jettySize=auto;html=1;endArrow=halfCircle;endFill=0;endSize=6;strokeWidth=1;sketch=0;exitX=1;exitY=0.5;exitDx=0;exitDy=0;" edge="1" parent="1" source="Zj7BQAjbASsGY6jR_OW3-4" target="Zj7BQAjbASsGY6jR_OW3-9">
          <mxGeometry relative="1" as="geometry">
            <mxPoint x="400" y="395" as="sourcePoint" />
            <mxPoint x="470" y="400" as="targetPoint" />
          </mxGeometry>
        </mxCell>
        <mxCell id="Zj7BQAjbASsGY6jR_OW3-9" value="" style="whiteSpace=wrap;html=1;aspect=fixed;" vertex="1" parent="1">
          <mxGeometry x="394" y="391" width="20" height="20" as="geometry" />
        </mxCell>
        <mxCell id="Zj7BQAjbASsGY6jR_OW3-12" value="&amp;lt;&amp;lt;компонент &lt;br&gt;интерфейс&amp;gt;&amp;gt;&lt;br&gt;&lt;br&gt;&lt;br&gt;программа" style="html=1;dropTarget=0;whiteSpace=wrap;" vertex="1" parent="1">
          <mxGeometry x="540" y="353" width="180" height="90" as="geometry" />
        </mxCell>
        <mxCell id="Zj7BQAjbASsGY6jR_OW3-13" value="" style="shape=module;jettyWidth=8;jettyHeight=4;" vertex="1" parent="Zj7BQAjbASsGY6jR_OW3-12">
          <mxGeometry x="1" width="20" height="20" relative="1" as="geometry">
            <mxPoint x="-27" y="7" as="offset" />
          </mxGeometry>
        </mxCell>
        <mxCell id="Zj7BQAjbASsGY6jR_OW3-14" value="" style="whiteSpace=wrap;html=1;aspect=fixed;" vertex="1" parent="1">
          <mxGeometry x="530" y="390" width="20" height="20" as="geometry" />
        </mxCell>
        <mxCell id="Zj7BQAjbASsGY6jR_OW3-15" value="&amp;lt;&amp;lt;компонент &lt;br&gt;график массива&amp;gt;&amp;gt;&lt;br&gt;&lt;br&gt;&lt;br&gt;класс" style="html=1;dropTarget=0;whiteSpace=wrap;" vertex="1" parent="1">
          <mxGeometry x="540" y="495" width="180" height="90" as="geometry" />
        </mxCell>
        <mxCell id="Zj7BQAjbASsGY6jR_OW3-16" value="" style="shape=module;jettyWidth=8;jettyHeight=4;" vertex="1" parent="Zj7BQAjbASsGY6jR_OW3-15">
          <mxGeometry x="1" width="20" height="20" relative="1" as="geometry">
            <mxPoint x="-27" y="7" as="offset" />
          </mxGeometry>
        </mxCell>
        <mxCell id="Zj7BQAjbASsGY6jR_OW3-17" value="&amp;lt;&amp;lt;компонент &lt;br&gt;генератор массива&amp;gt;&amp;gt;&lt;br&gt;&lt;br&gt;&lt;br&gt;класс" style="html=1;dropTarget=0;whiteSpace=wrap;" vertex="1" parent="1">
          <mxGeometry x="220" y="495" width="180" height="90" as="geometry" />
        </mxCell>
        <mxCell id="Zj7BQAjbASsGY6jR_OW3-18" value="" style="shape=module;jettyWidth=8;jettyHeight=4;" vertex="1" parent="Zj7BQAjbASsGY6jR_OW3-17">
          <mxGeometry x="1" width="20" height="20" relative="1" as="geometry">
            <mxPoint x="-27" y="7" as="offset" />
          </mxGeometry>
        </mxCell>
        <mxCell id="Zj7BQAjbASsGY6jR_OW3-19" value="" style="whiteSpace=wrap;html=1;aspect=fixed;" vertex="1" parent="1">
          <mxGeometry x="389" y="530" width="20" height="20" as="geometry" />
        </mxCell>
        <mxCell id="Zj7BQAjbASsGY6jR_OW3-22" value="" style="ellipse;whiteSpace=wrap;html=1;align=center;aspect=fixed;fillColor=none;strokeColor=none;resizable=0;perimeter=centerPerimeter;rotatable=0;allowArrows=0;points=[];outlineConnect=1;" vertex="1" parent="1">
          <mxGeometry x="475" y="470" width="10" height="10" as="geometry" />
        </mxCell>
        <mxCell id="Zj7BQAjbASsGY6jR_OW3-23" value="" style="rounded=0;orthogonalLoop=1;jettySize=auto;html=1;endArrow=halfCircle;endFill=0;endSize=6;strokeWidth=1;sketch=0;" edge="1" target="Zj7BQAjbASsGY6jR_OW3-25" parent="1" source="Zj7BQAjbASsGY6jR_OW3-15">
          <mxGeometry relative="1" as="geometry">
            <mxPoint x="530" y="560" as="sourcePoint" />
          </mxGeometry>
        </mxCell>
        <mxCell id="Zj7BQAjbASsGY6jR_OW3-24" value="" style="rounded=0;orthogonalLoop=1;jettySize=auto;html=1;endArrow=oval;endFill=0;sketch=0;sourcePerimeterSpacing=0;targetPerimeterSpacing=0;endSize=10;" edge="1" target="Zj7BQAjbASsGY6jR_OW3-25" parent="1" source="Zj7BQAjbASsGY6jR_OW3-19">
          <mxGeometry relative="1" as="geometry">
            <mxPoint x="460" y="375" as="sourcePoint" />
          </mxGeometry>
        </mxCell>
        <mxCell id="Zj7BQAjbASsGY6jR_OW3-25" value="" style="ellipse;whiteSpace=wrap;html=1;align=center;aspect=fixed;fillColor=none;strokeColor=none;resizable=0;perimeter=centerPerimeter;rotatable=0;allowArrows=0;points=[];outlineConnect=1;" vertex="1" parent="1">
          <mxGeometry x="460" y="535" width="10" height="10" as="geometry" />
        </mxCell>
        <mxCell id="Zj7BQAjbASsGY6jR_OW3-26" value="" style="whiteSpace=wrap;html=1;aspect=fixed;" vertex="1" parent="1">
          <mxGeometry x="530" y="529" width="20" height="20" as="geometry" />
        </mxCell>
        <mxCell id="Zj7BQAjbASsGY6jR_OW3-27" value="" style="rounded=0;orthogonalLoop=1;jettySize=auto;html=1;endArrow=halfCircle;endFill=0;endSize=6;strokeWidth=1;sketch=0;exitX=0.5;exitY=1;exitDx=0;exitDy=0;" edge="1" parent="1" source="Zj7BQAjbASsGY6jR_OW3-32">
          <mxGeometry relative="1" as="geometry">
            <mxPoint x="500" y="375" as="sourcePoint" />
            <mxPoint x="630" y="470" as="targetPoint" />
          </mxGeometry>
        </mxCell>
        <mxCell id="Zj7BQAjbASsGY6jR_OW3-28" value="" style="rounded=0;orthogonalLoop=1;jettySize=auto;html=1;endArrow=oval;endFill=0;sketch=0;sourcePerimeterSpacing=0;targetPerimeterSpacing=0;endSize=10;exitX=0.5;exitY=0;exitDx=0;exitDy=0;" edge="1" parent="1" source="Zj7BQAjbASsGY6jR_OW3-15">
          <mxGeometry relative="1" as="geometry">
            <mxPoint x="460" y="375" as="sourcePoint" />
            <mxPoint x="630" y="470" as="targetPoint" />
          </mxGeometry>
        </mxCell>
        <mxCell id="Zj7BQAjbASsGY6jR_OW3-29" value="" style="ellipse;whiteSpace=wrap;html=1;align=center;aspect=fixed;fillColor=none;strokeColor=none;resizable=0;perimeter=centerPerimeter;rotatable=0;allowArrows=0;points=[];outlineConnect=1;" vertex="1" parent="1">
          <mxGeometry x="475" y="370" width="10" height="10" as="geometry" />
        </mxCell>
        <mxCell id="Zj7BQAjbASsGY6jR_OW3-31" value="" style="whiteSpace=wrap;html=1;aspect=fixed;" vertex="1" parent="1">
          <mxGeometry x="620" y="490" width="20" height="20" as="geometry" />
        </mxCell>
        <mxCell id="Zj7BQAjbASsGY6jR_OW3-33" value="" style="rounded=0;orthogonalLoop=1;jettySize=auto;html=1;endArrow=halfCircle;endFill=0;endSize=6;strokeWidth=1;sketch=0;exitX=0.5;exitY=1;exitDx=0;exitDy=0;" edge="1" parent="1" source="Zj7BQAjbASsGY6jR_OW3-12" target="Zj7BQAjbASsGY6jR_OW3-32">
          <mxGeometry relative="1" as="geometry">
            <mxPoint x="630" y="440" as="sourcePoint" />
            <mxPoint x="630" y="470" as="targetPoint" />
          </mxGeometry>
        </mxCell>
        <mxCell id="Zj7BQAjbASsGY6jR_OW3-32" value="" style="whiteSpace=wrap;html=1;aspect=fixed;" vertex="1" parent="1">
          <mxGeometry x="620" y="433" width="20" height="20" as="geometry" />
        </mxCell>
        <mxCell id="Zj7BQAjbASsGY6jR_OW3-35" value="График" style="text;html=1;align=center;verticalAlign=middle;resizable=0;points=[];autosize=1;strokeColor=none;fillColor=none;" vertex="1" parent="1">
          <mxGeometry x="161" y="222" width="60" height="30" as="geometry" />
        </mxCell>
      </root>
    </mxGraphModel>
  </diagram>
  <diagram id="S-dpaSkjFV2wVcEjglh1" name="Коопераций">
    <mxGraphModel dx="1195" dy="703" grid="1" gridSize="10" guides="1" tooltips="1" connect="1" arrows="1" fold="1" page="1" pageScale="1" pageWidth="827" pageHeight="1169" math="0" shadow="0">
      <root>
        <mxCell id="0" />
        <mxCell id="1" parent="0" />
        <mxCell id="mithpTxnX-YxXzNMIfzc-1" value="Мачнева Е.А" style="shape=umlActor;verticalLabelPosition=bottom;verticalAlign=top;html=1;" vertex="1" parent="1">
          <mxGeometry x="150" y="340" width="30" height="60" as="geometry" />
        </mxCell>
        <mxCell id="mithpTxnX-YxXzNMIfzc-14" style="edgeStyle=orthogonalEdgeStyle;rounded=0;orthogonalLoop=1;jettySize=auto;html=1;exitX=1;exitY=0.5;exitDx=0;exitDy=0;entryX=0;entryY=0.5;entryDx=0;entryDy=0;endArrow=none;endFill=0;" edge="1" parent="1" source="mithpTxnX-YxXzNMIfzc-3" target="mithpTxnX-YxXzNMIfzc-10">
          <mxGeometry relative="1" as="geometry" />
        </mxCell>
        <mxCell id="mithpTxnX-YxXzNMIfzc-3" value="И:Интерфейс программы" style="rounded=0;whiteSpace=wrap;html=1;strokeWidth=3;" vertex="1" parent="1">
          <mxGeometry x="320" y="340" width="120" height="90" as="geometry" />
        </mxCell>
        <mxCell id="mithpTxnX-YxXzNMIfzc-4" value="" style="endArrow=none;html=1;rounded=0;exitX=0;exitY=0.5;exitDx=0;exitDy=0;" edge="1" parent="1" source="mithpTxnX-YxXzNMIfzc-3">
          <mxGeometry width="50" height="50" relative="1" as="geometry">
            <mxPoint x="390" y="460" as="sourcePoint" />
            <mxPoint x="190" y="385" as="targetPoint" />
          </mxGeometry>
        </mxCell>
        <mxCell id="mithpTxnX-YxXzNMIfzc-5" value="1.Запуск" style="text;html=1;align=center;verticalAlign=middle;resizable=0;points=[];autosize=1;strokeColor=none;fillColor=none;" vertex="1" parent="1">
          <mxGeometry x="250" y="355" width="70" height="30" as="geometry" />
        </mxCell>
        <mxCell id="mithpTxnX-YxXzNMIfzc-6" value="" style="ellipse;html=1;" vertex="1" parent="1">
          <mxGeometry x="190" y="360" width="20" height="20" as="geometry" />
        </mxCell>
        <mxCell id="mithpTxnX-YxXzNMIfzc-7" value="" style="endArrow=open;html=1;rounded=0;align=center;verticalAlign=top;endFill=0;labelBackgroundColor=none;endSize=6;" edge="1" source="mithpTxnX-YxXzNMIfzc-6" parent="1" target="mithpTxnX-YxXzNMIfzc-5">
          <mxGeometry relative="1" as="geometry">
            <mxPoint x="220" y="370" as="targetPoint" />
          </mxGeometry>
        </mxCell>
        <mxCell id="mithpTxnX-YxXzNMIfzc-10" value="Метод функции&lt;br&gt;Построение графика" style="rounded=0;whiteSpace=wrap;html=1;align=left;" vertex="1" parent="1">
          <mxGeometry x="570" y="340" width="120" height="90" as="geometry" />
        </mxCell>
        <mxCell id="mithpTxnX-YxXzNMIfzc-11" value="" style="endArrow=none;html=1;rounded=0;entryX=1;entryY=0.25;entryDx=0;entryDy=0;exitX=0;exitY=0.25;exitDx=0;exitDy=0;" edge="1" parent="1" source="mithpTxnX-YxXzNMIfzc-10" target="mithpTxnX-YxXzNMIfzc-10">
          <mxGeometry width="50" height="50" relative="1" as="geometry">
            <mxPoint x="380" y="460" as="sourcePoint" />
            <mxPoint x="430" y="410" as="targetPoint" />
          </mxGeometry>
        </mxCell>
        <mxCell id="mithpTxnX-YxXzNMIfzc-12" value=":Класс графика" style="text;html=1;align=center;verticalAlign=middle;resizable=0;points=[];autosize=1;strokeColor=none;fillColor=none;" vertex="1" parent="1">
          <mxGeometry x="580" y="340" width="100" height="30" as="geometry" />
        </mxCell>
        <mxCell id="mithpTxnX-YxXzNMIfzc-19" value="" style="ellipse;html=1;" vertex="1" parent="1">
          <mxGeometry x="450" y="360" width="20" height="20" as="geometry" />
        </mxCell>
        <mxCell id="mithpTxnX-YxXzNMIfzc-20" value="" style="endArrow=open;html=1;rounded=0;align=center;verticalAlign=top;endFill=0;labelBackgroundColor=none;endSize=6;" edge="1" parent="1">
          <mxGeometry relative="1" as="geometry">
            <mxPoint x="510" y="369" as="targetPoint" />
            <mxPoint x="470" y="369" as="sourcePoint" />
          </mxGeometry>
        </mxCell>
        <mxCell id="mithpTxnX-YxXzNMIfzc-21" value="2.Создаёт &lt;br&gt;графики массивов" style="text;html=1;align=center;verticalAlign=middle;resizable=0;points=[];autosize=1;strokeColor=none;fillColor=none;" vertex="1" parent="1">
          <mxGeometry x="461" y="323" width="120" height="40" as="geometry" />
        </mxCell>
        <mxCell id="mithpTxnX-YxXzNMIfzc-22" value="" style="ellipse;html=1;" vertex="1" parent="1">
          <mxGeometry x="540" y="400" width="20" height="20" as="geometry" />
        </mxCell>
        <mxCell id="mithpTxnX-YxXzNMIfzc-23" value="" style="endArrow=open;html=1;rounded=0;align=center;verticalAlign=top;endFill=0;labelBackgroundColor=none;endSize=6;exitX=0;exitY=0.5;exitDx=0;exitDy=0;" edge="1" parent="1" source="mithpTxnX-YxXzNMIfzc-22">
          <mxGeometry relative="1" as="geometry">
            <mxPoint x="500" y="410" as="targetPoint" />
            <mxPoint x="220" y="380" as="sourcePoint" />
          </mxGeometry>
        </mxCell>
        <mxCell id="mithpTxnX-YxXzNMIfzc-24" value="5. Передает&lt;br&gt;график массивов" style="text;html=1;align=center;verticalAlign=middle;resizable=0;points=[];autosize=1;strokeColor=none;fillColor=none;" vertex="1" parent="1">
          <mxGeometry x="420" y="415" width="110" height="40" as="geometry" />
        </mxCell>
        <mxCell id="mithpTxnX-YxXzNMIfzc-25" value="Метод функции&lt;br&gt;Заполнение массива" style="rounded=0;whiteSpace=wrap;html=1;align=left;" vertex="1" parent="1">
          <mxGeometry x="570" y="510" width="120" height="90" as="geometry" />
        </mxCell>
        <mxCell id="mithpTxnX-YxXzNMIfzc-26" value="" style="endArrow=none;html=1;rounded=0;entryX=1;entryY=0.25;entryDx=0;entryDy=0;exitX=0;exitY=0.25;exitDx=0;exitDy=0;" edge="1" parent="1" source="mithpTxnX-YxXzNMIfzc-25" target="mithpTxnX-YxXzNMIfzc-25">
          <mxGeometry width="50" height="50" relative="1" as="geometry">
            <mxPoint x="390" y="590" as="sourcePoint" />
            <mxPoint x="440" y="540" as="targetPoint" />
          </mxGeometry>
        </mxCell>
        <mxCell id="mithpTxnX-YxXzNMIfzc-27" value=":Класс ГСЧ массива" style="text;html=1;align=center;verticalAlign=middle;resizable=0;points=[];autosize=1;strokeColor=none;fillColor=none;" vertex="1" parent="1">
          <mxGeometry x="560" y="510" width="130" height="30" as="geometry" />
        </mxCell>
        <mxCell id="mithpTxnX-YxXzNMIfzc-29" style="edgeStyle=orthogonalEdgeStyle;rounded=0;orthogonalLoop=1;jettySize=auto;html=1;entryX=0.538;entryY=-0.015;entryDx=0;entryDy=0;entryPerimeter=0;endArrow=none;endFill=0;" edge="1" parent="1" source="mithpTxnX-YxXzNMIfzc-10" target="mithpTxnX-YxXzNMIfzc-27">
          <mxGeometry relative="1" as="geometry" />
        </mxCell>
        <mxCell id="mithpTxnX-YxXzNMIfzc-30" value="3.Получает массив" style="text;html=1;strokeColor=none;fillColor=none;align=center;verticalAlign=middle;whiteSpace=wrap;rounded=0;rotation=0;" vertex="1" parent="1">
          <mxGeometry x="670" y="450" width="60" height="30" as="geometry" />
        </mxCell>
        <mxCell id="mithpTxnX-YxXzNMIfzc-31" value="" style="ellipse;html=1;" vertex="1" parent="1">
          <mxGeometry x="640" y="435" width="20" height="20" as="geometry" />
        </mxCell>
        <mxCell id="mithpTxnX-YxXzNMIfzc-32" value="" style="endArrow=open;html=1;rounded=0;align=center;verticalAlign=top;endFill=0;labelBackgroundColor=none;endSize=6;exitX=0.5;exitY=1;exitDx=0;exitDy=0;" edge="1" parent="1" source="mithpTxnX-YxXzNMIfzc-31">
          <mxGeometry relative="1" as="geometry">
            <mxPoint x="650" y="480" as="targetPoint" />
            <mxPoint x="550" y="420" as="sourcePoint" />
          </mxGeometry>
        </mxCell>
        <mxCell id="mithpTxnX-YxXzNMIfzc-33" value="" style="ellipse;html=1;" vertex="1" parent="1">
          <mxGeometry x="610" y="490" width="20" height="20" as="geometry" />
        </mxCell>
        <mxCell id="mithpTxnX-YxXzNMIfzc-36" value="" style="endArrow=open;html=1;rounded=0;align=center;verticalAlign=top;endFill=0;labelBackgroundColor=none;endSize=6;exitX=0.5;exitY=0;exitDx=0;exitDy=0;" edge="1" parent="1" source="mithpTxnX-YxXzNMIfzc-33">
          <mxGeometry relative="1" as="geometry">
            <mxPoint x="620" y="460" as="targetPoint" />
            <mxPoint x="660" y="465" as="sourcePoint" />
          </mxGeometry>
        </mxCell>
        <mxCell id="mithpTxnX-YxXzNMIfzc-37" value="4.Даёт &lt;br&gt;массив&lt;br&gt;" style="text;html=1;align=center;verticalAlign=middle;resizable=0;points=[];autosize=1;strokeColor=none;fillColor=none;" vertex="1" parent="1">
          <mxGeometry x="540" y="450" width="60" height="40" as="geometry" />
        </mxCell>
        <mxCell id="mithpTxnX-YxXzNMIfzc-38" value=":Визуализатор&lt;br&gt;графика" style="rounded=0;whiteSpace=wrap;html=1;align=center;" vertex="1" parent="1">
          <mxGeometry x="320" y="510" width="120" height="90" as="geometry" />
        </mxCell>
        <mxCell id="mithpTxnX-YxXzNMIfzc-41" value="" style="endArrow=none;html=1;rounded=0;entryX=0.5;entryY=1;entryDx=0;entryDy=0;exitX=0.5;exitY=0;exitDx=0;exitDy=0;" edge="1" parent="1" source="mithpTxnX-YxXzNMIfzc-38" target="mithpTxnX-YxXzNMIfzc-3">
          <mxGeometry width="50" height="50" relative="1" as="geometry">
            <mxPoint x="570" y="640" as="sourcePoint" />
            <mxPoint x="620" y="590" as="targetPoint" />
          </mxGeometry>
        </mxCell>
        <mxCell id="mithpTxnX-YxXzNMIfzc-42" value="6.Запрашивает&lt;br&gt;визуализацию" style="text;html=1;align=center;verticalAlign=middle;resizable=0;points=[];autosize=1;strokeColor=none;fillColor=none;" vertex="1" parent="1">
          <mxGeometry x="400" y="455" width="100" height="40" as="geometry" />
        </mxCell>
        <mxCell id="mithpTxnX-YxXzNMIfzc-43" value="" style="ellipse;html=1;" vertex="1" parent="1">
          <mxGeometry x="380" y="430" width="20" height="20" as="geometry" />
        </mxCell>
        <mxCell id="mithpTxnX-YxXzNMIfzc-45" value="" style="ellipse;html=1;" vertex="1" parent="1">
          <mxGeometry x="360" y="490" width="20" height="20" as="geometry" />
        </mxCell>
        <mxCell id="mithpTxnX-YxXzNMIfzc-46" value="" style="endArrow=open;html=1;rounded=0;align=center;verticalAlign=top;endFill=0;labelBackgroundColor=none;endSize=6;exitX=0.5;exitY=1;exitDx=0;exitDy=0;" edge="1" parent="1" source="mithpTxnX-YxXzNMIfzc-43">
          <mxGeometry relative="1" as="geometry">
            <mxPoint x="390" y="480" as="targetPoint" />
            <mxPoint x="630" y="500" as="sourcePoint" />
          </mxGeometry>
        </mxCell>
        <mxCell id="mithpTxnX-YxXzNMIfzc-48" value="" style="endArrow=open;html=1;rounded=0;align=center;verticalAlign=top;endFill=0;labelBackgroundColor=none;endSize=6;exitX=0.5;exitY=0;exitDx=0;exitDy=0;" edge="1" parent="1" source="mithpTxnX-YxXzNMIfzc-45">
          <mxGeometry relative="1" as="geometry">
            <mxPoint x="370" y="460" as="targetPoint" />
            <mxPoint x="400" y="460" as="sourcePoint" />
          </mxGeometry>
        </mxCell>
        <mxCell id="mithpTxnX-YxXzNMIfzc-49" value="7.Визиализирует&amp;nbsp;&lt;br&gt;график" style="text;html=1;align=center;verticalAlign=middle;resizable=0;points=[];autosize=1;strokeColor=none;fillColor=none;" vertex="1" parent="1">
          <mxGeometry x="260" y="455" width="110" height="40" as="geometry" />
        </mxCell>
        <mxCell id="mithpTxnX-YxXzNMIfzc-50" value="8.Получает&lt;br&gt;график" style="text;html=1;align=center;verticalAlign=middle;resizable=0;points=[];autosize=1;strokeColor=none;fillColor=none;" vertex="1" parent="1">
          <mxGeometry x="240" y="385" width="80" height="40" as="geometry" />
        </mxCell>
      </root>
    </mxGraphModel>
  </diagram>
  <diagram id="dMBGRVCGU3zXFOx1stIT" name="Развертывания">
    <mxGraphModel dx="1434" dy="844" grid="1" gridSize="10" guides="1" tooltips="1" connect="1" arrows="1" fold="1" page="1" pageScale="1" pageWidth="827" pageHeight="1169" math="0" shadow="0">
      <root>
        <mxCell id="0" />
        <mxCell id="1" parent="0" />
        <mxCell id="DXOCUzE8BqKrHPD3vOvG-1" value="Рабочая станция пользователя" style="verticalAlign=top;align=left;spacingTop=8;spacingLeft=2;spacingRight=12;shape=cube;size=10;direction=south;fontStyle=4;html=1;whiteSpace=wrap;" vertex="1" parent="1">
          <mxGeometry x="60" y="360" width="180" height="120" as="geometry" />
        </mxCell>
        <mxCell id="DXOCUzE8BqKrHPD3vOvG-2" value="Устройство ПЭВМ:" style="verticalAlign=top;align=left;spacingTop=8;spacingLeft=2;spacingRight=12;shape=cube;size=10;direction=south;fontStyle=4;html=1;whiteSpace=wrap;" vertex="1" parent="1">
          <mxGeometry x="340" y="360" width="180" height="120" as="geometry" />
        </mxCell>
        <mxCell id="DXOCUzE8BqKrHPD3vOvG-3" value="Программа График массивов" style="verticalAlign=top;align=left;spacingTop=8;spacingLeft=2;spacingRight=12;shape=cube;size=10;direction=south;fontStyle=4;html=1;whiteSpace=wrap;" vertex="1" parent="1">
          <mxGeometry x="600" y="360" width="180" height="120" as="geometry" />
        </mxCell>
        <mxCell id="DXOCUzE8BqKrHPD3vOvG-5" value="Модуль &lt;br&gt;отображения&lt;br&gt;графика массивов" style="rounded=0;whiteSpace=wrap;html=1;align=center;" vertex="1" parent="1">
          <mxGeometry x="80" y="400" width="130" height="60" as="geometry" />
        </mxCell>
        <mxCell id="DXOCUzE8BqKrHPD3vOvG-6" value="&lt;font style=&quot;font-size: 11px;&quot;&gt;+ОС:Windows&lt;br&gt;+Программа:Visual Studio&lt;br&gt;+Интернет 10 мб/с&lt;br&gt;-Лицензия: необязательно&lt;/font&gt;" style="rounded=0;whiteSpace=wrap;html=1;" vertex="1" parent="1">
          <mxGeometry x="360" y="400" width="130" height="70" as="geometry" />
        </mxCell>
        <mxCell id="DXOCUzE8BqKrHPD3vOvG-7" value="Модуль &lt;br&gt;обработки&lt;br&gt;данных" style="rounded=0;whiteSpace=wrap;html=1;" vertex="1" parent="1">
          <mxGeometry x="625" y="400" width="130" height="60" as="geometry" />
        </mxCell>
        <mxCell id="DXOCUzE8BqKrHPD3vOvG-9" value="" style="html=1;dropTarget=0;whiteSpace=wrap;opacity=0;" vertex="1" parent="1">
          <mxGeometry x="263" y="535" width="180" height="90" as="geometry" />
        </mxCell>
        <mxCell id="DXOCUzE8BqKrHPD3vOvG-10" value="" style="shape=module;jettyWidth=8;jettyHeight=4;" vertex="1" parent="DXOCUzE8BqKrHPD3vOvG-9">
          <mxGeometry x="1" width="20" height="20" relative="1" as="geometry">
            <mxPoint x="-260" y="-130" as="offset" />
          </mxGeometry>
        </mxCell>
        <mxCell id="DXOCUzE8BqKrHPD3vOvG-15" value="" style="shape=module;jettyWidth=8;jettyHeight=4;" vertex="1" parent="1">
          <mxGeometry x="730" y="410" width="20" height="20" as="geometry" />
        </mxCell>
        <mxCell id="DXOCUzE8BqKrHPD3vOvG-17" value="" style="endArrow=none;html=1;rounded=0;entryX=0;entryY=0;entryDx=65;entryDy=180;entryPerimeter=0;exitX=0.542;exitY=0;exitDx=0;exitDy=0;exitPerimeter=0;" edge="1" parent="1" source="DXOCUzE8BqKrHPD3vOvG-1" target="DXOCUzE8BqKrHPD3vOvG-2">
          <mxGeometry width="50" height="50" relative="1" as="geometry">
            <mxPoint x="390" y="590" as="sourcePoint" />
            <mxPoint x="440" y="540" as="targetPoint" />
          </mxGeometry>
        </mxCell>
        <mxCell id="DXOCUzE8BqKrHPD3vOvG-18" value="" style="endArrow=none;html=1;rounded=0;exitX=0.542;exitY=0;exitDx=0;exitDy=0;exitPerimeter=0;" edge="1" parent="1">
          <mxGeometry width="50" height="50" relative="1" as="geometry">
            <mxPoint x="520" y="429" as="sourcePoint" />
            <mxPoint x="600" y="429" as="targetPoint" />
          </mxGeometry>
        </mxCell>
      </root>
    </mxGraphModel>
  </diagram>
</mxfile>
